<?xml version="1.0" encoding="UTF-8" standalone="no"?>
<svg width="41px" height="40px" viewBox="0 0 41 40" version="1.1" xmlns="http://www.w3.org/2000/svg" xmlns:xlink="http://www.w3.org/1999/xlink">
    <!-- Generator: Sketch 3.6 (26304) - http://www.bohemiancoding.com/sketch -->
    <title>Page 1</title>
    <desc>Created with Sketch.</desc>
    <defs></defs>
    <g id="Page-1" stroke="none" stroke-width="1" fill="none" fill-rule="evenodd">
        <g id=".-copy" transform="translate(-354.000000, -2171.000000)" fill="#60DBA2">
            <path d="M370,2171 L370,2173 L370,2178.999 L354,2178.999 L357.999,2207 L365.999,2207 L365.999,2211 L394.999,2211 L394.999,2189 L392.571,2189 L393.999,2178.999 L378,2178.999 L378,2173 L378,2171 L370,2171 Z M372,2173 L376,2173 L376,2175 L372,2175 L372,2173 Z M372,2176.999 L376,2176.999 L376,2178.999 L372,2178.999 L372,2176.999 Z M356.306,2181 L391.694,2181 L390.551,2189 L386.743,2189 L387,2186.999 L384.98,2186.999 L383.464,2199 L364.535,2199 L363,2186.999 L360.979,2186.999 L362.8,2201 L365.999,2201 L365.999,2204.999 L359.735,2204.999 L356.306,2181 Z M386.485,2191 L392,2191 L392,2194.999 L385.971,2194.999 L386.485,2191 Z M368,2201 L385.2,2201 L385.457,2199 L392.999001,2199 L392.999001,2209 L368,2209 L368,2201 Z" id="Page-1" transform="translate(374.499500, 2191.000000) rotate(-180.000000) translate(-374.499500, -2191.000000) "></path>
        </g>
    </g>
</svg>