<?xml version="1.0" encoding="UTF-8" standalone="no"?>
<svg width="40px" height="32px" viewBox="0 0 40 32" version="1.1" xmlns="http://www.w3.org/2000/svg" xmlns:xlink="http://www.w3.org/1999/xlink">
    <!-- Generator: Sketch 3.6 (26304) - http://www.bohemiancoding.com/sketch -->
    <title>Fill 1</title>
    <desc>Created with Sketch.</desc>
    <defs></defs>
    <g id="Page-1" stroke="none" stroke-width="1" fill="none" fill-rule="evenodd">
        <g id=".-copy" transform="translate(-708.000000, -2175.000000)" fill="#60DBA2">
            <path d="M746,2197 L740,2197 L740,2189 L716,2189 L716,2197 L710,2197 L710,2183 L746,2183 L746,2197 Z M718,2191 L738,2191 L738,2205 L718,2205 L718,2191 Z M708,2181 L708,2199 L716,2199 L716,2207 L740,2207 L740,2199 L748,2199 L748,2181 L708,2181 Z M720,2201 L720,2199 L736,2199 L736,2201 L720,2201 Z M720,2197 L720,2195 L736,2195 L736,2197 L720,2197 Z M718,2179 L718,2177 L738,2177 L738,2179 L740,2179 L740,2175 L716,2175 L716,2179 L718,2179 Z" id="Fill-1"></path>
        </g>
    </g>
</svg>