<?xml version="1.0" encoding="UTF-8" standalone="no"?>
<svg width="32px" height="40px" viewBox="0 0 32 40" version="1.1" xmlns="http://www.w3.org/2000/svg" xmlns:xlink="http://www.w3.org/1999/xlink">
    <!-- Generator: Sketch 3.6 (26304) - http://www.bohemiancoding.com/sketch -->
    <title>Fill 1</title>
    <desc>Created with Sketch.</desc>
    <defs></defs>
    <g id="Page-1" stroke="none" stroke-width="1" fill="none" fill-rule="evenodd">
        <g id=".-copy" transform="translate(-1069.000000, -2175.000000)" fill="#60DBA2">
            <path d="M1091,2175 C1091,2175 1091,2182 1085,2182 C1079,2182 1079,2175 1079,2175 L1069,2175 L1069,2215 L1079,2215 C1079,2215 1079,2209 1085,2209 C1091,2209 1091,2215 1091,2215 L1101,2215 L1101,2175 L1091,2175 Z M1099,2213 L1093,2213 C1092.27413,2209.68 1089.87732,2207 1085,2207 C1080.12268,2207 1077.74931,2209.68 1077,2213 L1071,2213 L1071,2177 L1077,2177 C1077.731,2180.32 1079.96692,2184 1085,2184 C1090.03308,2184 1092.269,2180.32 1093,2177 L1099,2177 L1099,2213 Z M1095,2196 L1091,2196 L1091,2194 L1095,2194 L1095,2196 Z M1087,2196 L1083,2196 L1083,2194 L1087,2194 L1087,2196 Z M1079,2196 L1075,2196 L1075,2194 L1079,2194 L1079,2196 Z" id="Fill-1"></path>
        </g>
    </g>
</svg>